<?xml version="1.0" encoding="utf-8"?>
<!-- Generator: Adobe Illustrator 14.0.0, SVG Export Plug-In  -->
<!DOCTYPE svg PUBLIC "-//W3C//DTD SVG 1.1//EN" "http://www.w3.org/Graphics/SVG/1.1/DTD/svg11.dtd" [
	<!ENTITY ns_flows "http://ns.adobe.com/Flows/1.0/">
]>
<svg version="1.1"
	 xmlns="http://www.w3.org/2000/svg" xmlns:xlink="http://www.w3.org/1999/xlink" xmlns:a="http://ns.adobe.com/AdobeSVGViewerExtensions/3.0/"
	 x="0px" y="0px" width="23px" height="23px" viewBox="-1.455 -2.325 23 23" enable-background="new -1.455 -2.325 23 23"
	 xml:space="preserve">
<defs>
</defs>
<path fill="#FFFFFF" d="M1.975,8.198L0,8.085C0.186,4.836,1.814,1.889,4.471,0l1.146,1.611C3.453,3.15,2.125,5.551,1.975,8.198
	L1.975,8.198z"/>
<path fill="#FFFFFF" d="M18.215,8.198C18.066,5.561,16.74,3.16,14.58,1.609l1.152-1.606c2.648,1.9,4.273,4.847,4.457,8.083
	L18.215,8.198L18.215,8.198z"/>
<path fill="#FFFFFF" d="M17.518,15.939H2.674v-2.09l1.631-1.629V8.517c0-2.762,1.418-4.971,3.67-5.818
	c0.059-1.119,0.986-2.012,2.121-2.012c1.133,0,2.061,0.893,2.119,2.012c2.254,0.849,3.672,3.057,3.672,5.817v3.704l1.631,1.629
	V15.939L17.518,15.939z M4.93,14.138h10.33l-1.172-1.172v-4.45c0-2.202-1.143-3.84-2.979-4.277l-0.691-0.165V2.81
	c0-0.181-0.143-0.323-0.322-0.323c-0.182,0-0.324,0.142-0.324,0.323v1.266L9.078,4.24C7.244,4.675,6.104,6.313,6.104,8.517v4.45
	L4.93,14.138L4.93,14.138z"/>
<path fill="#FFFFFF" d="M10.096,18.781c0.113,0,0.219-0.008,0.326-0.033c0.529-0.113,0.961-0.473,1.174-0.963
	c0.08-0.195,0.121-0.406,0.121-0.635h-3.26C8.465,18.046,9.191,18.781,10.096,18.781z"/>
</svg>
