<?xml version="1.0" encoding="utf-8"?>
<!-- Generator: Adobe Illustrator 14.0.0, SVG Export Plug-In  -->
<!DOCTYPE svg PUBLIC "-//W3C//DTD SVG 1.1//EN" "http://www.w3.org/Graphics/SVG/1.1/DTD/svg11.dtd" [
	<!ENTITY ns_flows "http://ns.adobe.com/Flows/1.0/">
]>
<svg version="1.1"
	 xmlns="http://www.w3.org/2000/svg" xmlns:xlink="http://www.w3.org/1999/xlink" xmlns:a="http://ns.adobe.com/AdobeSVGViewerExtensions/3.0/"
	 x="0px" y="0px" width="22px" height="22px" viewBox="-2.227 -1.85 22 22" enable-background="new -2.227 -1.85 22 22"
	 xml:space="preserve">
<defs>
</defs>
<path fill="#ffffff" d="M12.5,11h-0.79l-0.28-0.27C12.41,9.59,13,8.11,13,6.5C13,2.91,10.09,0,6.5,0S0,2.91,0,6.5S2.91,13,6.5,13
	c1.609,0,3.09-0.59,4.23-1.57L11,11.71v0.79l5,4.99L17.49,16L12.5,11z M6.5,11C4.01,11,2,8.99,2,6.5S4.01,2,6.5,2S11,4.01,11,6.5
	S8.99,11,6.5,11z"/>
</svg>
