<?xml version="1.0" encoding="utf-8"?>
<!-- Generator: Adobe Illustrator 14.0.0, SVG Export Plug-In  -->
<!DOCTYPE svg PUBLIC "-//W3C//DTD SVG 1.1//EN" "http://www.w3.org/Graphics/SVG/1.1/DTD/svg11.dtd" [
	<!ENTITY ns_flows "http://ns.adobe.com/Flows/1.0/">
]>
<svg version="1.1"
	 xmlns="http://www.w3.org/2000/svg" xmlns:xlink="http://www.w3.org/1999/xlink" xmlns:a="http://ns.adobe.com/AdobeSVGViewerExtensions/3.0/"
	 x="0px" y="0px" width="30px" height="30px" viewBox="-1.688 -3.3 30 30" enable-background="new -1.688 -3.3 30 30"
	 xml:space="preserve">
<defs>
</defs>
<g>
	<g>
		<path fill="#333333" d="M16.414,22.917c-5.992-0.008-9.895-2.088-9.895-2.088c3.495-1.291,3.466-1.193,5.187-2.055
			c1.623-0.805,1.602-2.791,1.338-3.857c-0.264-1.063-1.459-3.595-1.455-7.317c0.004-3.728,3.074-4.629,4.536-4.627
			c1.467,0.002,4.777,0.649,4.772,5.169c-0.004,4.523-1.864,5.19-1.866,7.313c-0.003,2.131,0.259,2.932,2.386,3.6
			c2.128,0.666,5.055,1.799,5.055,1.799S22.403,22.925,16.414,22.917z"/>
	</g>
</g>
<g>
	<g>
		<path fill="#333333" d="M4.101,20.47l-0.534-1.449c0.927-0.342,1.607-0.588,2.138-0.779c1.447-0.521,1.748-0.631,2.975-1.242
			c1.47-0.73,0.955-2.889,0.932-2.98C9.559,13.81,9.465,13.536,9.353,13.2c-0.458-1.356-1.224-3.63-1.22-6.688
			c0.004-3.961,3.174-5.398,5.305-5.398h0.005L13.44,2.659l0,0c-0.163,0-3.76,0.045-3.764,3.856
			c-0.004,2.803,0.711,4.924,1.139,6.194c0.129,0.381,0.232,0.694,0.294,0.937c0.424,1.717,0.05,3.846-1.743,4.736
			c-1.306,0.65-1.656,0.777-3.139,1.313C5.7,19.884,5.024,20.128,4.101,20.47L4.101,20.47z"/>
	</g>
</g>
<g>
	<g>
		<path fill="#333333" d="M0.534,19.354L0,17.905c0.918-0.338,1.592-0.582,2.12-0.771c1.491-0.537,1.76-0.635,2.992-1.248
			c1.473-0.732,0.953-2.89,0.93-2.98c-0.053-0.214-0.146-0.488-0.259-0.824c-0.456-1.357-1.22-3.629-1.216-6.682
			c0.002-2.36,1.109-3.661,2.039-4.336C7.96,0.078,9.44,0,9.869,0h0.005L9.872,1.544H9.868c-0.629,0-1.576,0.201-2.354,0.767
			C6.585,2.988,6.112,4.027,6.111,5.401C6.108,8.2,6.821,10.322,7.246,11.59c0.13,0.383,0.234,0.699,0.295,0.942
			c0.427,1.713,0.056,3.842-1.741,4.734c-1.313,0.654-1.666,0.781-3.155,1.318C2.12,18.776,1.447,19.019,0.534,19.354L0.534,19.354z
			"/>
	</g>
</g>
</svg>
