<?xml version="1.0" encoding="utf-8"?>
<!-- Generator: Adobe Illustrator 14.0.0, SVG Export Plug-In  -->
<!DOCTYPE svg PUBLIC "-//W3C//DTD SVG 1.1//EN" "http://www.w3.org/Graphics/SVG/1.1/DTD/svg11.dtd" [
	<!ENTITY ns_flows "http://ns.adobe.com/Flows/1.0/">
]>
<svg version="1.1"
	 xmlns="http://www.w3.org/2000/svg" xmlns:xlink="http://www.w3.org/1999/xlink" xmlns:a="http://ns.adobe.com/AdobeSVGViewerExtensions/3.0/"
	 x="0px" y="0px" width="30px" height="30px" viewBox="-6.049 -4.638 30 30" enable-background="new -6.049 -4.638 30 30"
	 xml:space="preserve">
<defs>
</defs>
<path fill="#333333" d="M15.681,20.471H3c-1.654,0-3-1.346-3-3V3c0-1.654,1.346-3,3-3h12.681c1.654,0,3,1.346,3,3v14.471
	C18.681,19.125,17.335,20.471,15.681,20.471L15.681,20.471z M3,2C2.449,2,2,2.449,2,3v14.471c0,0.552,0.449,1,1,1h12.681
	c0.552,0,1-0.448,1-1V3c0-0.551-0.448-1-1-1H3L3,2z"/>
<polygon fill="#333333" points="14.055,6.506 4.997,6.506 4.997,4.506 14.055,4.506 14.055,6.506 "/>
<polygon fill="#333333" points="14.055,11.279 4.997,11.279 4.997,9.279 14.055,9.279 14.055,11.279 "/>
<polygon fill="#333333" points="14.055,15.814 4.997,15.814 4.997,13.814 14.055,13.814 14.055,15.814 "/>
</svg>
