<?xml version="1.0" encoding="utf-8"?>
<!-- Generator: Adobe Illustrator 14.0.0, SVG Export Plug-In  -->
<!DOCTYPE svg PUBLIC "-//W3C//DTD SVG 1.1//EN" "http://www.w3.org/Graphics/SVG/1.1/DTD/svg11.dtd" [
	<!ENTITY ns_flows "http://ns.adobe.com/Flows/1.0/">
]>
<svg version="1.1"
	 xmlns="http://www.w3.org/2000/svg" xmlns:xlink="http://www.w3.org/1999/xlink" xmlns:a="http://ns.adobe.com/AdobeSVGViewerExtensions/3.0/"
	 x="0px" y="0px" width="30px" height="30px" viewBox="-1.813 -1.942 30 30" enable-background="new -1.813 -1.942 30 30"
	 xml:space="preserve">
<defs>
</defs>
<g>
	<g>
		<g>
			<path fill="#333333" d="M13.477,8.787c-2.593-0.003-4.695,2.093-4.697,4.683c-0.004,2.593,2.094,4.697,4.688,4.699
				c2.586,0.002,4.691-2.096,4.693-4.688C18.164,10.891,16.063,8.79,13.477,8.787z"/>
		</g>
		<g>
			<g>
				<path fill="#333333" d="M16.396,25.626c-0.001,0.549-0.451,0.998-1.001,0.998l-4.201-0.004c-0.55,0-1-0.451-0.999-1.002
					l0.001-1.225c0-0.549-0.278-1.104-0.619-1.232c-0.341-0.127-1.517-0.232-1.906,0.156L6.786,24.2
					c-0.39,0.389-1.026,0.387-1.415-0.002l-2.966-2.971c-0.389-0.391-0.388-1.027,0.001-1.416l0.948-0.947
					c0.389-0.389,0.589-0.967,0.444-1.283s-0.894-1.182-1.444-1.182l-1.356-0.002c-0.55,0-1-0.451-0.999-1.002l0.005-4.2
					c0-0.55,0.451-1,1.001-0.999l1.399,0.001C2.955,10.2,3.5,9.939,3.617,9.621c0.117-0.318,0.184-1.448-0.204-1.838L2.422,6.788
					c-0.388-0.39-0.388-1.026,0.002-1.415l2.973-2.967c0.39-0.389,1.026-0.388,1.415,0.001l0.973,0.975
					c0.389,0.389,0.961,0.585,1.272,0.437s1.165-0.912,1.166-1.462l0.002-1.357c0-0.55,0.451-1,1.001-0.999l4.201,0.005
					c0.55,0,0.999,0.451,0.999,1.001l-0.002,1.268c0,0.55,0.277,1.097,0.618,1.215c0.34,0.119,1.527,0.201,1.916-0.188l0.88-0.878
					c0.389-0.389,1.024-0.389,1.413,0.001l2.967,2.974c0.389,0.39,0.388,1.026-0.002,1.414l-0.818,0.816
					c-0.39,0.388-0.573,0.983-0.409,1.321s0.954,1.273,1.504,1.274l1.134,0.001c0.55,0,0.999,0.451,0.999,1.001l-0.005,4.201
					c0,0.551-0.451,1-1.001,1l-1.091-0.002c-0.55,0-1.105,0.295-1.234,0.656c-0.13,0.361-0.253,1.594,0.136,1.984l0.771,0.771
					c0.389,0.391,0.388,1.025-0.002,1.414l-2.972,2.967c-0.39,0.389-1.026,0.387-1.414-0.002l-0.792-0.793
					c-0.388-0.389-0.989-0.576-1.336-0.416s-1.285,0.936-1.286,1.484L16.396,25.626z M12.071,23.745
					c-0.001,0.551,0.449,1.002,0.999,1.002h0.455c0.55,0,1-0.449,1.001-0.998l0.001-0.746c0.001-0.549,0.168-1.035,0.371-1.078
					c0.204-0.043,0.788-0.205,1.297-0.363c0.51-0.156,1.927-0.898,2.101-1.006c0.174-0.105,0.634,0.125,1.022,0.514l0.496,0.498
					c0.389,0.389,1.025,0.389,1.414,0l0.32-0.318c0.389-0.389,0.39-1.025,0.001-1.416l-0.482-0.484
					c-0.389-0.389-0.616-0.852-0.507-1.025s0.405-0.713,0.658-1.199c0.252-0.486,0.711-2.008,0.757-2.209s0.533-0.365,1.083-0.365
					h0.689c0.55,0,1.001-0.449,1.001-0.999l0.001-0.453c0-0.55-0.449-1-0.999-1.001l-0.712,0c-0.55-0.001-1.039-0.163-1.086-0.361
					c-0.047-0.198-0.224-0.779-0.393-1.292S20.634,8.55,20.52,8.375c-0.113-0.175,0.113-0.636,0.503-1.024l0.544-0.542
					c0.39-0.388,0.392-1.024,0.003-1.414l-0.321-0.321c-0.389-0.39-1.024-0.39-1.414-0.001l-0.576,0.575
					c-0.39,0.389-0.849,0.621-1.021,0.515c-0.172-0.105-0.699-0.384-1.171-0.62c-0.473-0.236-1.945-0.664-2.148-0.708
					s-0.37-0.53-0.369-1.08l0.001-0.879c0.001-0.55-0.449-1-0.999-1.001l-0.455,0c-0.55,0-1,0.449-1.001,0.999l-0.001,0.923
					c-0.001,0.55-0.161,1.04-0.357,1.088c-0.195,0.048-0.752,0.219-1.237,0.381S8.69,6.143,8.516,6.252S7.881,6.133,7.493,5.744
					L6.808,5.057c-0.388-0.39-1.025-0.39-1.415-0.002L5.071,5.376C4.681,5.765,4.68,6.401,5.069,6.79l0.697,0.698
					c0.389,0.389,0.619,0.85,0.511,1.023S5.892,9.196,5.66,9.647s-0.669,1.869-0.716,2.067s-0.536,0.36-1.085,0.36l-0.981-0.001
					c-0.55,0-1,0.449-1.001,0.999v0.453c0,0.55,0.449,1.001,0.999,1.001l0.956,0.002c0.55,0,1.036,0.166,1.081,0.367
					s0.204,0.766,0.355,1.252c0.151,0.488,0.846,1.834,0.95,2.006s-0.129,0.631-0.519,1.02l-0.644,0.643
					c-0.39,0.389-0.39,1.025-0.001,1.414l0.321,0.32c0.389,0.389,1.026,0.391,1.416,0.002l0.611-0.609
					c0.39-0.389,0.851-0.613,1.025-0.5c0.174,0.115,0.693,0.41,1.154,0.656s1.94,0.721,2.136,0.77
					c0.196,0.047,0.356,0.537,0.355,1.088L12.071,23.745z"/>
			</g>
		</g>
	</g>
</g>
<path fill="#FFFFFF" d="M13.517,11.464c-1.118-0.001-2.024,0.902-2.024,2.019c-0.002,1.118,0.902,2.024,2.021,2.026
	c1.114,0,2.022-0.904,2.023-2.021C15.537,12.371,14.632,11.465,13.517,11.464z"/>
</svg>
