<?xml version="1.0" encoding="utf-8"?>
<!-- Generator: Adobe Illustrator 14.0.0, SVG Export Plug-In  -->
<!DOCTYPE svg PUBLIC "-//W3C//DTD SVG 1.1//EN" "http://www.w3.org/Graphics/SVG/1.1/DTD/svg11.dtd" [
	<!ENTITY ns_flows "http://ns.adobe.com/Flows/1.0/">
]>
<svg version="1.1"
	 xmlns="http://www.w3.org/2000/svg" xmlns:xlink="http://www.w3.org/1999/xlink" xmlns:a="http://ns.adobe.com/AdobeSVGViewerExtensions/3.0/"
	 x="0px" y="0px" width="50px" height="50px" viewBox="-1.264 -2.121 50 50" enable-background="new -1.264 -2.121 50 50"
	 xml:space="preserve">
<defs>
</defs>
<radialGradient id="SVGID_1_" cx="22.853" cy="-96.6753" r="27.353" gradientTransform="matrix(1 0 0 -1 2.5 -74.2422)" gradientUnits="userSpaceOnUse">
	<stop  offset="0" style="stop-color:#52A347"/>
	<stop  offset="0.502" style="stop-color:#83B03E"/>
	<stop  offset="0.7059" style="stop-color:#2EA64C"/>
	<stop  offset="0.9294" style="stop-color:#264122"/>
	<stop  offset="0.9333" style="stop-color:#264122"/>
</radialGradient>
<path fill="url(#SVGID_1_)" d="M38.264,2.979l2.042,1.87L14.488,19.687l-12.5-7.244l1.168-2.337l11.333,6.485L38.264,2.979z
	 M33.063,0l2.746,1.403L14.488,13.67l-9.93-5.667l1.694-2.044l8.236,4.731L33.063,0z M42.117,6.776l1.52,2.045L14.488,25.587
	L0.41,17.525l0.642-2.57l13.436,7.711L42.117,6.776z"/>
<radialGradient id="SVGID_2_" cx="22.853" cy="-96.6738" r="27.3534" gradientTransform="matrix(1 0 0 -1 2.5 -74.2422)" gradientUnits="userSpaceOnUse">
	<stop  offset="0" style="stop-color:#52A347"/>
	<stop  offset="0.502" style="stop-color:#83B03E"/>
	<stop  offset="0.7059" style="stop-color:#2B9940"/>
	<stop  offset="0.9294" style="stop-color:#264122"/>
	<stop  offset="0.9333" style="stop-color:#264122"/>
</radialGradient>
<path fill="url(#SVGID_2_)" d="M46.324,14.312c0.858,2.415,1.285,4.946,1.285,7.594c0,2.647-0.427,5.219-1.285,7.71l-0.584,1.579
	c-1.207,2.841-2.901,5.373-5.081,7.593c-2.222,2.182-4.75,3.856-7.597,5.024c-2.996,1.286-6.093,1.928-9.288,1.928
	c-3.231,0-6.328-0.644-9.287-1.928c-2.764-1.168-5.277-2.843-7.535-5.024c-2.221-2.22-3.915-4.752-5.083-7.593
	C0.624,28.195,0,25.1,0,21.906v-1.577l14.488,8.238L45.04,11.041L46.324,14.312z"/>
</svg>
