<?xml version="1.0" encoding="utf-8"?>
<!-- Generator: Adobe Illustrator 14.0.0, SVG Export Plug-In  -->
<!DOCTYPE svg PUBLIC "-//W3C//DTD SVG 1.1//EN" "http://www.w3.org/Graphics/SVG/1.1/DTD/svg11.dtd" [
	<!ENTITY ns_flows "http://ns.adobe.com/Flows/1.0/">
]>
<svg version="1.1"
	 xmlns="http://www.w3.org/2000/svg" xmlns:xlink="http://www.w3.org/1999/xlink" xmlns:a="http://ns.adobe.com/AdobeSVGViewerExtensions/3.0/"
	 x="0px" y="0px" width="30px" height="30px" viewBox="-2.034 -4.827 30 30" enable-background="new -2.034 -4.827 30 30"
	 xml:space="preserve">
<defs>
</defs>
<path fill="#333333" d="M26.047,20.531H2.729V3.176h23.318V20.531L26.047,20.531z M4.557,18.703h19.662V5.004H4.557V18.703
	L4.557,18.703z"/>
<polygon fill="#333333" points="1.828,16.441 0,16.441 0,0 22.404,0 22.404,1.828 1.828,1.828 1.828,16.441 "/>
<polygon fill="#333333" points="22.056,9.246 15.31,9.246 15.31,7.417 22.056,7.417 22.056,9.246 "/>
<polygon fill="#333333" points="22.056,12.871 15.31,12.871 15.31,11.043 22.056,11.043 22.056,12.871 "/>
<polygon fill="#333333" points="22.056,16.496 15.31,16.496 15.31,14.668 22.056,14.668 22.056,16.496 "/>
<polygon fill="#333333" points="13.354,9.246 6.606,9.246 6.606,7.417 13.354,7.417 13.354,9.246 "/>
<polygon fill="#333333" points="13.354,12.871 6.606,12.871 6.606,11.043 13.354,11.043 13.354,12.871 "/>
<polygon fill="#333333" points="13.354,16.496 6.606,16.496 6.606,14.668 13.354,14.668 13.354,16.496 "/>
</svg>
