<?xml version="1.0" encoding="utf-8"?>
<!-- Generator: Adobe Illustrator 14.0.0, SVG Export Plug-In  -->
<!DOCTYPE svg PUBLIC "-//W3C//DTD SVG 1.1//EN" "http://www.w3.org/Graphics/SVG/1.1/DTD/svg11.dtd" [
	<!ENTITY ns_flows "http://ns.adobe.com/Flows/1.0/">
]>
<svg version="1.1"
	 xmlns="http://www.w3.org/2000/svg" xmlns:xlink="http://www.w3.org/1999/xlink" xmlns:a="http://ns.adobe.com/AdobeSVGViewerExtensions/3.0/"
	 x="0px" y="0px" width="30px" height="30px" viewBox="-2.986 -2.509 30 30" enable-background="new -2.986 -2.509 30 30"
	 xml:space="preserve">
<defs>
</defs>
<path fill="#333333" d="M12.594,0C5.659,0,0.009,5.643,0,12.579c-0.006,6.942,5.637,12.595,12.58,12.603h0.015h0.002
	c6.931,0,12.58-5.641,12.587-12.574C25.192,5.663,19.549,0.007,12.594,0z M20.233,20.285c-0.856-0.322-2.366-0.878-3.574-1.257
	c-1.789-0.562-2.01-1.235-2.008-3.026c0.002-1.787,1.568-2.348,1.572-6.153c0.004-3.802-2.783-4.348-4.016-4.35
	c-1.229,0-3.812,0.758-3.815,3.894c-0.004,3.131,1,5.262,1.223,6.157c0.225,0.896,0.24,2.567-1.123,3.245
	c-1.308,0.65-1.422,0.652-3.588,1.442c-1.955-1.966-3.165-4.673-3.161-7.657c0.007-5.977,4.875-10.84,10.864-10.84
	c5.98,0.006,10.843,4.88,10.835,10.866C23.439,15.604,22.21,18.321,20.233,20.285z"/>
</svg>
