<?xml version="1.0" encoding="utf-8"?>
<!-- Generator: Adobe Illustrator 14.0.0, SVG Export Plug-In  -->
<!DOCTYPE svg PUBLIC "-//W3C//DTD SVG 1.1//EN" "http://www.w3.org/Graphics/SVG/1.1/DTD/svg11.dtd" [
	<!ENTITY ns_flows "http://ns.adobe.com/Flows/1.0/">
]>
<svg version="1.1"
	 xmlns="http://www.w3.org/2000/svg" xmlns:xlink="http://www.w3.org/1999/xlink" xmlns:a="http://ns.adobe.com/AdobeSVGViewerExtensions/3.0/"
	 x="0px" y="0px" width="30px" height="30px" viewBox="-1.563 -4.946 30 30" enable-background="new -1.563 -4.946 30 30"
	 xml:space="preserve">
<defs>
</defs>
<path fill="#333333" d="M1.828,18.164H0V2.878C0,1.292,1.292,0,2.879,0H22.02v1.828H2.879c-0.58,0-1.051,0.471-1.051,1.05V18.164
	L1.828,18.164z"/>
<path fill="#333333" d="M23.063,2.912H5.429c-1.635,0-2.965,1.33-2.965,2.965v11.79c0,1.635,1.33,2.964,2.965,2.964h17.635
	c1.635,0,2.965-1.329,2.965-2.964V5.876C26.028,4.242,24.698,2.912,23.063,2.912z M23.063,18.63H5.429
	c-0.532,0-0.965-0.433-0.965-0.964V5.876c0-0.532,0.433-0.965,0.965-0.965h17.635c0.532,0,0.965,0.433,0.965,0.965v2.051H15.34
	c-1.146,0-2.084,0.938-2.084,2.083v3.357c0,1.146,0.938,2.083,2.084,2.083h8.688v2.215C24.028,18.197,23.596,18.63,23.063,18.63z
	 M18.768,11.738c0,1.006-0.785,1.822-1.754,1.822c-0.967,0-1.754-0.816-1.754-1.822s0.787-1.822,1.754-1.822
	C17.982,9.916,18.768,10.732,18.768,11.738z"/>
</svg>
