<?xml version="1.0" encoding="utf-8"?>
<!-- Generator: Adobe Illustrator 14.0.0, SVG Export Plug-In  -->
<!DOCTYPE svg PUBLIC "-//W3C//DTD SVG 1.1//EN" "http://www.w3.org/Graphics/SVG/1.1/DTD/svg11.dtd" [
	<!ENTITY ns_flows "http://ns.adobe.com/Flows/1.0/">
]>
<svg version="1.1"
	 xmlns="http://www.w3.org/2000/svg" xmlns:xlink="http://www.w3.org/1999/xlink" xmlns:a="http://ns.adobe.com/AdobeSVGViewerExtensions/3.0/"
	 x="0px" y="0px" width="360px" height="24px" viewBox="-16.528 -6.206 360 24" enable-background="new -16.528 -6.206 360 24"
	 xml:space="preserve">
<defs>
</defs>
<path fill="#FFFFFF" d="M313.186,3.614h-0.024l-1.407,0.76l-0.212-0.834l1.768-0.946h0.935v8.094h-1.059V3.614z"/>
<path fill="#FFFFFF" d="M317.46,9.44c0.311,0.188,1.021,0.498,1.793,0.498c1.395,0,1.842-0.883,1.83-1.568
	c-0.013-1.133-1.033-1.619-2.092-1.619h-0.61V5.93h0.61c0.797,0,1.805-0.411,1.805-1.37c0-0.647-0.41-1.22-1.419-1.22
	c-0.647,0-1.271,0.287-1.618,0.536l-0.299-0.797c0.436-0.312,1.257-0.623,2.129-0.623c1.594,0,2.315,0.946,2.315,1.93
	c0,0.847-0.511,1.556-1.494,1.917v0.025c0.996,0.187,1.793,0.935,1.806,2.067c0,1.295-1.021,2.428-2.951,2.428
	c-0.908,0-1.705-0.287-2.104-0.549L317.46,9.44z"/>
<path fill="#FFFFFF" d="M323.688,5.656c0-0.461,0.311-0.784,0.734-0.784c0.448,0,0.734,0.323,0.734,0.784
	c0,0.436-0.286,0.772-0.747,0.772C323.987,6.428,323.688,6.091,323.688,5.656z M323.688,10.052c0-0.461,0.311-0.785,0.734-0.785
	c0.448,0,0.734,0.324,0.734,0.785c0,0.436-0.286,0.771-0.747,0.771C323.987,10.823,323.688,10.487,323.688,10.052z"/>
<path fill="#FFFFFF" d="M331.56,6.552c0,2.751-1.034,4.271-2.814,4.271c-1.581,0-2.664-1.482-2.689-4.159
	c0-2.727,1.183-4.209,2.826-4.209C330.575,2.456,331.56,3.975,331.56,6.552z M327.164,6.677c0,2.104,0.647,3.299,1.644,3.299
	c1.107,0,1.644-1.307,1.644-3.374c0-1.992-0.498-3.3-1.644-3.3C327.861,3.302,327.164,4.473,327.164,6.677z"/>
<path fill="#FFFFFF" d="M337.95,6.552c0,2.751-1.034,4.271-2.814,4.271c-1.581,0-2.664-1.482-2.689-4.159
	c0-2.727,1.183-4.209,2.826-4.209C336.966,2.456,337.95,3.975,337.95,6.552z M333.555,6.677c0,2.104,0.647,3.299,1.644,3.299
	c1.107,0,1.644-1.307,1.644-3.374c0-1.992-0.498-3.3-1.644-3.3C334.252,3.302,333.555,4.473,333.555,6.677z"/>
<path fill="#FFFFFF" d="M7.305,9.729H5.518V5.064L4.226,8.091h-1.24L1.694,5.064v4.666H0V2.762h2.087l1.568,3.495l1.563-3.495h2.087
	V9.729z"/>
<path fill="#FFFFFF" d="M14.534,4.109h-2.176v5.62h-1.797v-5.62H8.385V2.762h6.149V4.109z"/>
<path fill="#FFFFFF" d="M21.192,7.539c0,0.687-0.291,1.244-0.873,1.673c-0.581,0.43-1.371,0.644-2.37,0.644
	c-0.577,0-1.08-0.051-1.509-0.152c-0.429-0.101-0.83-0.229-1.205-0.386V7.646h0.197c0.371,0.297,0.786,0.524,1.246,0.684
	c0.461,0.159,0.902,0.238,1.327,0.238c0.109,0,0.253-0.009,0.431-0.028c0.178-0.018,0.322-0.049,0.435-0.094
	c0.138-0.056,0.251-0.126,0.34-0.21c0.089-0.085,0.133-0.209,0.133-0.374c0-0.153-0.064-0.285-0.194-0.396
	c-0.129-0.11-0.318-0.196-0.568-0.255c-0.262-0.063-0.539-0.121-0.83-0.176c-0.292-0.055-0.565-0.124-0.821-0.209
	c-0.587-0.189-1.009-0.448-1.266-0.774c-0.258-0.326-0.387-0.73-0.387-1.214c0-0.649,0.291-1.179,0.873-1.589
	s1.33-0.615,2.244-0.615c0.458,0,0.911,0.044,1.359,0.133c0.447,0.089,0.835,0.201,1.162,0.334v1.605h-0.191
	c-0.281-0.225-0.625-0.413-1.032-0.563c-0.407-0.151-0.822-0.227-1.247-0.227c-0.149,0-0.299,0.01-0.446,0.03
	c-0.148,0.021-0.291,0.059-0.429,0.115c-0.121,0.047-0.226,0.118-0.313,0.213c-0.087,0.095-0.131,0.204-0.131,0.325
	c0,0.184,0.07,0.325,0.211,0.423c0.14,0.098,0.405,0.188,0.795,0.269c0.256,0.053,0.502,0.104,0.737,0.154
	c0.235,0.05,0.489,0.119,0.761,0.206c0.533,0.175,0.927,0.413,1.181,0.714C21.065,6.668,21.192,7.059,21.192,7.539z"/>
<path fill="#FFFFFF" d="M32.409,9.729h-2.195l-1.896-2.555h-0.832v2.555h-1.788V2.762h3.014c0.412,0,0.766,0.023,1.063,0.07
	c0.296,0.047,0.574,0.148,0.833,0.304c0.262,0.156,0.47,0.358,0.624,0.606c0.155,0.248,0.232,0.56,0.232,0.934
	c0,0.515-0.12,0.935-0.358,1.259c-0.238,0.325-0.579,0.594-1.022,0.81L32.409,9.729z M29.605,4.896c0-0.175-0.035-0.325-0.107-0.449
	c-0.071-0.125-0.195-0.223-0.369-0.295c-0.122-0.05-0.264-0.081-0.426-0.091c-0.163-0.011-0.352-0.017-0.566-0.017h-0.65V5.92h0.552
	c0.287,0,0.527-0.014,0.721-0.042c0.193-0.028,0.355-0.092,0.486-0.192c0.125-0.097,0.217-0.204,0.274-0.32
	C29.577,5.249,29.605,5.092,29.605,4.896z"/>
<path fill="#FFFFFF" d="M39.297,7.207c0,0.86-0.263,1.521-0.786,1.979c-0.524,0.459-1.297,0.688-2.316,0.688
	c-1.021,0-1.792-0.229-2.314-0.688s-0.783-1.117-0.783-1.975v-4.45h1.806v4.347c0,0.484,0.102,0.844,0.305,1.081
	c0.202,0.237,0.531,0.355,0.987,0.355c0.449,0,0.777-0.114,0.984-0.341c0.208-0.229,0.312-0.594,0.312-1.096V2.762h1.807V7.207z"/>
<path fill="#FFFFFF" d="M46.555,7.539c0,0.687-0.291,1.244-0.873,1.673c-0.581,0.43-1.371,0.644-2.37,0.644
	c-0.577,0-1.08-0.051-1.509-0.152c-0.429-0.101-0.83-0.229-1.205-0.386V7.646h0.197c0.371,0.297,0.786,0.524,1.246,0.684
	c0.461,0.159,0.902,0.238,1.327,0.238c0.109,0,0.253-0.009,0.431-0.028c0.178-0.018,0.322-0.049,0.435-0.094
	c0.138-0.056,0.251-0.126,0.34-0.21c0.089-0.085,0.133-0.209,0.133-0.374c0-0.153-0.064-0.285-0.194-0.396
	c-0.129-0.11-0.318-0.196-0.568-0.255c-0.262-0.063-0.539-0.121-0.83-0.176c-0.292-0.055-0.565-0.124-0.821-0.209
	c-0.587-0.189-1.009-0.448-1.266-0.774c-0.258-0.326-0.387-0.73-0.387-1.214c0-0.649,0.291-1.179,0.873-1.589
	s1.33-0.615,2.244-0.615c0.458,0,0.911,0.044,1.359,0.133c0.447,0.089,0.835,0.201,1.162,0.334v1.605h-0.191
	c-0.281-0.225-0.625-0.413-1.032-0.563c-0.407-0.151-0.822-0.227-1.247-0.227c-0.149,0-0.299,0.01-0.446,0.03
	c-0.148,0.021-0.291,0.059-0.429,0.115c-0.121,0.047-0.226,0.118-0.313,0.213c-0.087,0.095-0.131,0.204-0.131,0.325
	c0,0.184,0.07,0.325,0.211,0.423c0.14,0.098,0.405,0.188,0.795,0.269c0.256,0.053,0.502,0.104,0.737,0.154
	c0.235,0.05,0.489,0.119,0.761,0.206c0.533,0.175,0.927,0.413,1.181,0.714C46.428,6.668,46.555,7.059,46.555,7.539z"/>
<path fill="#FFFFFF" d="M298.878,10.107h-15.619c-0.792,0-1.438-0.646-1.438-1.438V2.694c0-0.792,0.646-1.437,1.438-1.437h15.619
	c0.793,0,1.438,0.645,1.438,1.437v5.975C300.316,9.462,299.671,10.107,298.878,10.107L298.878,10.107z M283.259,2.215
	c-0.264,0-0.479,0.215-0.479,0.479v5.975c0,0.265,0.215,0.479,0.479,0.479h15.619c0.265,0,0.479-0.215,0.479-0.479V2.694
	c0-0.264-0.215-0.479-0.479-0.479H283.259L283.259,2.215z"/>
<g>
	<path fill="#FFFFFF" d="M301.11,6.899c0,0.527-0.263,0.957-0.584,0.957s-0.584-0.43-0.584-0.957V4.724
		c0-0.527,0.263-0.958,0.584-0.958s0.584,0.431,0.584,0.958V6.899z"/>
</g>
<path fill="#FFFFFF" d="M296.525,8.489h-12.36c-0.264,0-0.479-0.215-0.479-0.479V3.482c0-0.264,0.215-0.479,0.479-0.479h12.36"/>
<path fill="#FFFFFF" d="M273.044,3.084c-0.021-0.015-2.346-1.647-6.733-1.647c-4.345,0-6.328,1.601-6.348,1.617l-0.928-1.097
	C259.129,1.877,261.389,0,266.311,0c4.893,0,7.474,1.846,7.581,1.924L273.044,3.084L273.044,3.084z"/>
<path fill="#FFFFFF" d="M271.135,5.572c-0.014-0.009-1.663-1.159-4.777-1.159c-3.071,0-4.473,1.119-4.486,1.13l-0.927-1.098
	c0.07-0.06,1.766-1.47,5.413-1.47c3.619,0,5.545,1.378,5.625,1.437L271.135,5.572L271.135,5.572z"/>
<path fill="#FFFFFF" d="M269.227,8.06c-0.004-0.002-0.979-0.671-2.822-0.671c-1.799,0-2.618,0.639-2.626,0.645l-0.925-1.101
	c0.118-0.101,1.218-0.981,3.551-0.981c2.347,0,3.617,0.909,3.67,0.948L269.227,8.06L269.227,8.06z"/>
<path fill="#FFFFFF" d="M267.316,10.548c-0.002,0-0.294-0.184-0.865-0.184c-0.534,0-0.768,0.161-0.777,0.168l-0.913-1.109
	c0.097-0.083,0.631-0.496,1.69-0.496c1.056,0,1.65,0.414,1.715,0.461L267.316,10.548C267.316,10.548,267.316,10.548,267.316,10.548
	L267.316,10.548z"/>
</svg>
